<?xml version="1.0" encoding="UTF-8" standalone="no"?>
<!-- Created with Inkscape (http://www.inkscape.org/) -->

<svg
   width="78.253998mm"
   height="16.639999mm"
   viewBox="0 0 78.253998 16.639999"
   version="1.1"
   id="svg5"
   xmlns="http://www.w3.org/2000/svg"
   xmlns:svg="http://www.w3.org/2000/svg">
  <defs
     id="defs2">
    <rect
       x="1.49073"
       y="7.45365"
       width="337.65033"
       height="102.86037"
       id="rect3620" />
  </defs>
  <g
     id="layer1">
    <g
       aria-label="REIMNOP"
       transform="matrix(0.26458333,0,0,0.26458333,-2.1102015,-6.6342817)"
       id="reimnop"
       style="font-size:85.3333px;line-height:1.25;white-space:pre;shape-inside:url(#rect3620)">
      <path
         d="m 40.572885,87.538425 q -0.938667,0 -1.706666,-0.938666 -0.768,-0.938667 -1.194666,-1.962666 L 24.444891,59.037103 H 13.607563 v 26.197323 q 0,1.109333 -0.938667,1.706666 -0.853333,0.512 -1.877332,0.512 -1.109333,0 -1.962666,-0.512 Q 7.975565,86.343759 7.975565,85.234426 V 27.12245 q 0,-0.853333 0.5973331,-1.365333 0.5973331,-0.597333 1.5359989,-0.682666 h 15.103994 q 5.034665,0 9.215996,1.535999 4.181332,1.536 6.655998,5.205332 2.559998,3.583998 2.559998,10.069329 0,5.290664 -1.791999,8.703996 -1.706666,3.413332 -4.778664,5.290664 -2.986666,1.792 -6.741331,2.474666 l 13.141328,25.258656 q 0.256,0.256 0.256,0.597333 0.08533,0.256 0.08533,0.512 0,0.682666 -0.512,1.365333 -0.426666,0.682666 -1.194666,1.109333 -0.768,0.341333 -1.535999,0.341333 z M 13.607563,54.173106 h 11.605328 q 5.717331,0 9.215996,-2.730666 3.583999,-2.815999 3.583999,-9.301329 0,-6.399998 -3.583999,-9.130663 -3.498665,-2.730666 -9.215996,-2.730666 H 13.607563 Z"
         style="font-family:Dosis;-inkscape-font-specification:Dosis;fill:#ffffff"
         id="reimnop-r" />
      <path
         d="m 55.591533,87.453092 q -0.938666,0 -1.791999,-0.512 -0.768,-0.597333 -0.768,-1.706666 V 27.207783 q 0,-1.023999 0.768,-1.535999 0.853333,-0.597333 1.791999,-0.597333 h 30.378654 q 1.109333,0 1.621333,0.853333 0.512,0.768 0.512,1.621333 0,1.109332 -0.597333,1.962665 -0.512,0.768 -1.536,0.768 H 58.663532 V 53.746439 H 72.06086 q 1.023999,0 1.535999,0.768 0.597333,0.767999 0.597333,1.791999 0,0.768 -0.512,1.535999 -0.511999,0.768 -1.621332,0.768 H 58.663532 V 82.24776 h 27.306655 q 1.024,0 1.536,0.768 0.597333,0.768 0.597333,1.877333 0,0.938666 -0.512,1.791999 -0.512,0.768 -1.621333,0.768 z"
         style="font-family:Dosis;-inkscape-font-specification:Dosis;fill:#ffffff"
         id="reimnop-e" />
      <path
         d="m 99.196799,87.453092 q -1.109333,0 -1.962666,-0.512 Q 96.3808,86.343759 96.3808,85.234426 V 27.12245 q 0,-1.023999 0.853333,-1.535999 0.853333,-0.512 1.962666,-0.512 1.024001,0 1.877331,0.512 0.93867,0.512 0.93867,1.535999 v 58.111976 q 0,1.109333 -0.93867,1.706666 -0.85333,0.512 -1.877331,0.512 z"
         style="font-family:Dosis;-inkscape-font-specification:Dosis;fill:#ffffff"
         id="reimnop-i" />
      <path
         d="m 117.79933,87.453092 q -1.10933,0 -1.96267,-0.512 -0.85333,-0.597333 -0.85333,-1.706666 V 27.805117 q 0,-1.536 0.85333,-2.133333 0.85334,-0.597333 1.96267,-0.597333 1.024,0 1.792,0.597333 0.85333,0.512 1.536,1.450666 0.68267,0.853333 1.19467,1.877333 l 14.67732,28.330655 14.67733,-28.330655 q 0.59733,-1.024 1.19467,-1.877333 0.68266,-0.938666 1.536,-1.450666 0.85333,-0.597333 1.79199,-0.597333 1.19467,0 1.96267,0.597333 0.85333,0.597333 0.85333,2.133333 v 57.429309 q 0,1.109333 -0.85333,1.706666 -0.85333,0.512 -1.96267,0.512 -1.024,0 -1.96266,-0.512 -0.85333,-0.597333 -0.85333,-1.706666 V 37.277113 l -14.16533,26.794655 q -0.512,0.938666 -1.10933,1.365333 -0.59734,0.426666 -1.19467,0.426666 -0.512,0 -1.10933,-0.341333 -0.59734,-0.426666 -1.10934,-1.450666 L 120.61533,37.021113 v 48.213313 q 0,1.109333 -0.93867,1.706666 -0.85333,0.512 -1.87733,0.512 z"
         style="font-family:Dosis;-inkscape-font-specification:Dosis;fill:#ffffff"
         id="reimnop-m" />
      <path
         d="m 174.80191,87.453092 q -1.10933,0 -1.96267,-0.512 -0.85333,-0.597333 -0.85333,-1.706666 V 27.207783 q 0,-1.194666 0.85333,-1.621332 0.85334,-0.512 1.96267,-0.512 1.024,0 1.792,0.597333 0.768,0.512 1.45066,1.365333 0.68267,0.853333 1.19467,1.962666 l 23.03999,45.397314 V 27.12245 q 0,-1.109333 0.85333,-1.535999 0.85334,-0.512 1.96267,-0.512 1.024,0 1.87733,0.512 0.93867,0.426666 0.93867,1.535999 v 58.111976 q 0,1.109333 -0.93867,1.706666 -0.85333,0.512 -1.87733,0.512 -1.19467,0 -2.13333,-1.024 -0.93867,-1.024 -1.62134,-2.218666 L 177.61791,38.045112 v 47.189314 q 0,1.109333 -0.93867,1.706666 -0.85333,0.512 -1.87733,0.512 z"
         style="font-family:Dosis;-inkscape-font-specification:Dosis;fill:#ffffff"
         id="reimnop-n" />
      <path
         d="m 237.94855,87.965091 q -4.94933,0 -8.96,-1.791999 -4.01066,-1.791999 -6.39999,-5.802664 -2.304,-4.010665 -2.304,-10.666662 V 43.250443 q 0,-6.570664 2.304,-10.581329 2.38933,-4.010665 6.31466,-5.802664 4.01067,-1.791999 9.04533,-1.791999 5.03467,0 9.04533,1.791999 4.01067,1.791999 6.4,5.802664 2.38933,4.010665 2.38933,10.581329 v 26.453323 q 0,6.655997 -2.38933,10.666662 -2.38933,4.010665 -6.4,5.802664 -4.01066,1.791999 -9.04533,1.791999 z m 0,-5.205331 q 5.71733,0 8.96,-3.157332 3.24266,-3.157332 3.24266,-9.898662 V 43.250443 q 0,-6.655997 -3.24266,-9.813329 -3.24267,-3.157332 -8.96,-3.157332 -5.71733,0 -8.87466,3.157332 -3.15733,3.157332 -3.15733,9.813329 v 26.453323 q 0,6.74133 3.15733,9.898662 3.15733,3.157332 8.87466,3.157332 z"
         style="font-family:Dosis;-inkscape-font-specification:Dosis;fill:#ffffff"
         id="reimnop-o" />
      <path
         d="m 270.88714,87.453092 q -1.10933,0 -1.96266,-0.512 -0.85333,-0.597333 -0.85333,-1.706666 V 27.12245 q 0,-0.853333 0.59733,-1.365333 0.68267,-0.597333 1.792,-0.682666 h 15.70133 q 4.94933,0 8.95999,1.791999 4.01067,1.791999 6.31467,5.802664 2.30399,3.925332 2.30399,10.495996 v 0.853333 q 0,6.655997 -2.38933,10.666662 -2.304,3.925332 -6.4,5.717331 -4.01066,1.791999 -8.95999,1.791999 h -12.288 v 23.039991 q 0,1.109333 -0.93866,1.706666 -0.85334,0.512 -1.87734,0.512 z m 2.816,-30.122654 h 12.288 q 5.71733,0 8.87466,-3.157332 3.24267,-3.242666 3.24267,-9.898663 v -1.024 q 0,-6.655997 -3.24267,-9.813329 -3.15733,-3.157332 -8.87466,-3.157332 h -12.288 z"
         style="font-family:Dosis;-inkscape-font-specification:Dosis;fill:#ffffff"
         id="reimnop-p" />
    </g>
  </g>
</svg>
